<svg width="60" height="25" viewBox="0 0 60 25" fill="none" xmlns="http://www.w3.org/2000/svg">
<path d="M21.39 12.6C21.6647 12.3192 21.856 11.9676 21.9425 11.5845C22.029 11.2013 22.0074 10.8016 21.88 10.43C21.7605 10.0573 21.5387 9.72569 21.2399 9.47288C20.9411 9.22006 20.5773 9.05622 20.19 9.00002L15.9 8.34002C15.88 8.33422 15.8615 8.32403 15.846 8.31019C15.8304 8.29635 15.8181 8.27921 15.81 8.26002L13.93 4.26002C13.7651 3.88546 13.4949 3.56692 13.1522 3.34321C12.8096 3.11949 12.4092 3.00025 12 3.00002C11.5955 2.99835 11.1991 3.11353 10.8585 3.33173C10.5179 3.54993 10.2476 3.86186 10.08 4.23002L8.2 8.23002C8.18974 8.24952 8.17556 8.26669 8.15835 8.28046C8.14114 8.29423 8.12128 8.30429 8.1 8.31002L3.82 9.00002C3.43209 9.05781 3.06782 9.22206 2.7677 9.47452C2.46757 9.72698 2.24336 10.0577 2.12 10.43C1.9973 10.8029 1.97902 11.2023 2.06716 11.5848C2.15531 11.9673 2.34649 12.3184 2.62 12.6L5.78 15.85C5.7891 15.8705 5.7938 15.8926 5.7938 15.915C5.7938 15.9374 5.7891 15.9596 5.78 15.98L5.04 20.52C4.9712 20.9154 5.01605 21.3222 5.16932 21.6931C5.3226 22.064 5.578 22.3838 5.90583 22.6152C6.23367 22.8467 6.62048 22.9804 7.02128 23.0007C7.42209 23.021 7.82043 22.9272 8.17 22.73L11.9 20.66C11.9185 20.6504 11.9391 20.6453 11.96 20.6453C11.9809 20.6453 12.0015 20.6504 12.02 20.66L15.75 22.73C16.1 22.9229 16.4973 23.0134 16.8963 22.9913C17.2954 22.9691 17.6801 22.835 18.0066 22.6045C18.3331 22.374 18.5881 22.0563 18.7426 21.6877C18.897 21.319 18.9446 20.9144 18.88 20.52L18.19 16C18.1795 15.9818 18.1739 15.9611 18.1739 15.94C18.1739 15.919 18.1795 15.8983 18.19 15.88L21.39 12.6Z" fill="#FF7F4D"/>
<path d="M43.9932 16.3369H42.4463V19H39.792V16.3369H34.3076V14.4473L39.9414 6.15039H42.4463V14.2275H43.9932V16.3369ZM39.792 14.2275V12.0479C39.792 11.8428 39.7949 11.5996 39.8008 11.3184C39.8125 11.0371 39.8242 10.7559 39.8359 10.4746C39.8477 10.1934 39.8594 9.94434 39.8711 9.72754C39.8887 9.50488 39.9004 9.34961 39.9062 9.26172H39.8359C39.7246 9.50195 39.6074 9.73633 39.4844 9.96484C39.3613 10.1875 39.2178 10.4219 39.0537 10.668L36.6982 14.2275H39.792ZM45.3291 17.7432C45.3291 17.1924 45.4785 16.8057 45.7773 16.583C46.082 16.3604 46.4482 16.249 46.876 16.249C47.292 16.249 47.6494 16.3604 47.9482 16.583C48.2529 16.8057 48.4053 17.1924 48.4053 17.7432C48.4053 18.2705 48.2529 18.6514 47.9482 18.8857C47.6494 19.1201 47.292 19.2373 46.876 19.2373C46.4482 19.2373 46.082 19.1201 45.7773 18.8857C45.4785 18.6514 45.3291 18.2705 45.3291 17.7432ZM51.4287 19L56.2539 8.43555H49.917V6.15039H59.1367V7.85547L54.2764 19H51.4287Z" fill="#FF7F4D"/>
</svg>
